# xmcd
#
# Track frame offsets:
#	150
#	16050
#	26851
#	38106
#	59258
#	70212
#	79967
#	90245
#	101422
#	109472
#	120203
#	146009
#	167314
#	176019
#
# Disc length: 2595 seconds
#
# Revision: 1
# Processed by: cddbd v1.4PL0 Copyright (c) Steve Scherf et al.
# Submitted via: audiograbber 1.81.01
#
DISCID=ac0a210e
DTITLE=Aroah - No Podemos Ser Amigos
DYEAR=2002
DGENRE=Folk-Rock
TTITLE0=Myriam, La Primera
TTITLE1=Flavour Of The Month
TTITLE2=Happiness Avoids Me
TTITLE3=Her Iq #2
TTITLE4=The Biggest Idiot In The World
TTITLE5=Her Iq #2
TTITLE6=Cancion Con Idioma
TTITLE7=We Can't Be Friends
TTITLE8=Cancion Sin Palabras
TTITLE9=Words
TTITLE10=Tell Noah About The Rain
TTITLE11=La Historia Mas Triste
TTITLE12=X-Song
TTITLE13=Whiskey
EXTD=
EXTT0=
EXTT1=
EXTT2=
EXTT3=
EXTT4=
EXTT5=
EXTT6=
EXTT7=
EXTT8=
EXTT9=
EXTT10=
EXTT11=
EXTT12=
EXTT13=
PLAYORDER=
